<svg stroke="currentColor" fill="currentColor" stroke-width="0" viewBox="0 0 576 512" height="1em" width="1em" xmlns="http://www.w3.org/2000/svg"><path shape-rendering="auto" d="M140.47 203.94h-17.44v104.47h17.45c10.16-.54 17.36-8.67 17.47-17.41v-69.65c-.7-10.36-7.8-17.27-17.48-17.41zM435.2 0H76.8C34.38 0 0 34.38 0 76.8v358.4C0 477.62 34.38 512 76.8 512h358.4c42.42 0 76.8-34.38 76.8-76.8V76.8C512 34.38 477.62 0 435.2 0zM137.84 338.44h-46.4V172.98h47.38c35.44 0 47.36 28.46 47.37 47.28v70.93c.01 18.81-11.6 47.31-48.35 47.25zm128.33-97.49v29.57H233.6v38.41h53.29v29.57h-62.18c-11.16.29-20.44-8.53-20.72-19.69V193.7c-.27-11.15 8.56-20.41 19.71-20.69h63.19v29.52H233.6v38.42h32.57zm124.35 76.87c-13.2 30.75-36.85 24.63-47.44 0l-38.53-144.8h32.57l29.71 113.72 29.57-113.72h32.58l-38.46 144.8z"/></svg>